HIERARCHY
ROOT root
{
	OFFSET 0.000000 0.000000 0.000000
	CHANNELS 6 Xposition Yposition Zposition Zrotation Yrotation Xrotation
	JOINT lhip
	{
		OFFSET 0.058581 -0.082280 -0.017664
		CHANNELS 3 Zrotation Yrotation Xrotation
		JOINT lknee
		{
			OFFSET 0.043451 -0.386469 0.008037
			CHANNELS 3 Zrotation Yrotation Xrotation
			JOINT lankle
			{
				OFFSET -0.014790 -0.426874 -0.037428
				CHANNELS 3 Zrotation Yrotation Xrotation
				JOINT ltoe
				{
					OFFSET 0.041054 -0.060286 0.122042
					CHANNELS 3 Zrotation Yrotation Xrotation
					End Site
					{
						OFFSET 0.000000 0.000000 0.000000
					}
				}
			}
		}
	}
	JOINT rhip
	{
		OFFSET -0.060310 -0.090513 -0.013543
		CHANNELS 3 Zrotation Yrotation Xrotation
		JOINT rknee
		{
			OFFSET -0.043257 -0.383688 -0.004843
			CHANNELS 3 Zrotation Yrotation Xrotation
			JOINT rankle
			{
				OFFSET 0.019056 -0.420046 -0.034562
				CHANNELS 3 Zrotation Yrotation Xrotation
				JOINT rtoe
				{
					OFFSET -0.034840 -0.062106 0.130323
					CHANNELS 3 Zrotation Yrotation Xrotation
					End Site
					{
						OFFSET 0.000000 0.000000 0.000000
					}
				}
			}
		}
	}
	JOINT lowerback
	{
		OFFSET 0.004439 0.124404 -0.038385
		CHANNELS 3 Zrotation Yrotation Xrotation
		JOINT upperback
		{
			OFFSET 0.004488 0.137956 0.026820
			CHANNELS 3 Zrotation Yrotation Xrotation
			JOINT chest
			{
				OFFSET -0.002265 0.056032 0.002855
				CHANNELS 3 Zrotation Yrotation Xrotation
				JOINT lowerneck
				{
					OFFSET -0.013390 0.211636 -0.033468
					CHANNELS 3 Zrotation Yrotation Xrotation
					JOINT upperneck
					{
						OFFSET 0.010113 0.088937 0.050410
						CHANNELS 3 Zrotation Yrotation Xrotation
						End Site
						{
							OFFSET 0.000000 0.000000 0.000000
						}
					}
				}
				JOINT lclavicle
				{
					OFFSET 0.071702 0.114000 -0.018898
					CHANNELS 3 Zrotation Yrotation Xrotation
					JOINT lshoulder
					{
						OFFSET 0.122921 0.045205 -0.019046
						CHANNELS 3 Zrotation Yrotation Xrotation
						JOINT lelbow
						{
							OFFSET 0.255332 -0.015649 -0.022946
							CHANNELS 3 Zrotation Yrotation Xrotation
							JOINT lwrist
							{
								OFFSET 0.265709 0.012698 -0.007375
								CHANNELS 3 Zrotation Yrotation Xrotation
								End Site
								{
									OFFSET 0.000000 0.000000 0.000000
								}
							}
						}
					}
				}
				JOINT rclavicle
				{
					OFFSET -0.082954 0.112472 -0.023707
					CHANNELS 3 Zrotation Yrotation Xrotation
					JOINT rshoulder
					{
						OFFSET -0.113228 0.046853 -0.008472
						CHANNELS 3 Zrotation Yrotation Xrotation
						JOINT relbow
						{
							OFFSET -0.260127 -0.014369 -0.031269
							CHANNELS 3 Zrotation Yrotation Xrotation
							JOINT rwrist
							{
								OFFSET -0.269108 0.006794 -0.006027
								CHANNELS 3 Zrotation Yrotation Xrotation
								End Site
								{
									OFFSET 0.000000 0.000000 0.000000
								}
							}
						}
					}
				}
			}
		}
	}
}
MOTION
Frames: 17
Frame Time: 0.033333
-1.615159 0.922136 0.925391 54.791637 -3.079677 124.781984 19.341540 9.515016 -42.660193 -8.105417 -3.297358 13.930774 -9.203055 0.047311 0.203907 0.000000 -0.000000 0.000000 -14.757610 -1.944394 -59.594174 7.162915 8.911946 30.233274 9.170328 8.007798 -12.669633 0.000000 -0.000000 0.000000 -2.027604 -4.932642 31.203725 2.735321 -0.328628 -8.347283 3.672075 -3.869331 -5.438368 -7.583678 8.973996 -29.571048 1.771241 2.903929 1.040273 -17.609462 -5.330344 -4.605316 -30.692093 -25.481725 0.899116 89.219979 -56.982816 -78.107795 25.291813 -8.829054 -26.222527 25.786870 5.476658 0.429479 33.294039 7.171085 -1.441599 -17.809014 16.146096 -32.409236 14.119174 11.868537 -15.124822 
-1.608934 0.927470 0.925010 55.227872 -2.577656 124.753035 19.526889 9.344157 -42.948109 -8.234517 -3.166086 14.498508 -8.807307 0.004728 -0.901636 0.000000 -0.000000 0.000000 -14.515445 -2.101693 -58.911590 6.947049 9.155202 29.471990 9.270193 7.921951 -12.833891 0.000000 -0.000000 0.000000 -1.750387 -4.800262 30.645756 2.418786 0.307114 -8.532390 3.690431 -3.392646 -5.113359 -7.057461 7.314698 -28.911630 2.171475 2.622495 0.743839 -18.501250 -4.489518 -4.605500 -35.250710 -25.174487 3.553996 89.225780 -57.592844 -77.479545 26.279264 -7.699646 -27.441977 24.494808 5.652024 0.744336 30.755805 7.472452 -3.137900 -17.299136 15.330742 -33.962129 11.902366 10.818740 -16.520294 
-1.601443 0.933370 0.927087 56.015683 -2.755622 124.102052 18.781046 8.678076 -42.873054 -8.163245 -3.713733 15.025672 -8.188666 -0.101407 -1.641932 0.000000 -0.000000 0.000000 -14.662341 -3.012910 -57.098473 6.798046 9.402850 28.336687 9.837946 8.235655 -12.707768 0.000000 -0.000000 0.000000 -1.091806 -4.598027 31.231732 1.778325 0.328915 -9.082932 3.428554 -3.267061 -4.939714 -6.334262 5.641279 -28.954921 2.402767 2.361397 0.740409 -19.547122 -3.353653 -4.619410 -38.619980 -24.204514 5.776054 88.872807 -59.053569 -77.104622 27.248454 -6.090334 -28.802000 23.720305 5.572214 0.684920 27.677014 7.964754 -4.796989 -16.178647 14.045850 -35.426890 8.941694 10.014232 -15.898726 
-1.594940 0.937682 0.929135 56.930514 -2.290126 123.863835 19.158788 8.689768 -43.187220 -8.778454 -4.077195 15.915062 -8.848648 -0.376897 -1.885921 0.000000 -0.000000 0.000000 -14.361992 -2.784319 -55.753897 6.253861 9.881869 27.251619 9.655121 7.181899 -13.109747 0.000000 -0.000000 0.000000 -0.713316 -4.380529 30.472489 1.369102 1.005549 -9.131195 3.256320 -2.978013 -4.584370 -5.513369 4.308140 -28.546527 2.300822 1.792615 0.625079 -21.167162 -1.690660 -4.480381 -41.108608 -22.680683 7.581054 84.507795 -61.263477 -73.324573 27.903196 -5.592224 -30.457640 23.389759 5.352820 0.469460 23.676507 8.592068 -6.227507 -14.869494 12.585185 -37.298898 -0.034297 8.231875 -15.310309 
-1.589848 0.940372 0.931075 57.333788 -2.118460 123.415824 18.849082 8.820593 -42.843928 -8.881975 -4.296501 16.060441 -8.912687 -0.743229 -2.110525 0.000000 -0.000000 0.000000 -14.191397 -3.020691 -54.473455 6.132314 10.239421 26.365526 9.703303 7.097155 -13.146937 0.000000 -0.000000 0.000000 -0.461439 -4.165104 30.472835 0.956545 1.261678 -9.367591 3.130230 -2.749310 -4.286842 -5.082742 3.577568 -28.368014 2.301200 1.612699 0.322910 -22.043820 -0.893831 -4.487369 -42.036860 -21.217929 8.076632 80.983665 -62.219642 -69.595305 28.433518 -5.602005 -29.852730 23.129910 5.256525 0.700398 21.455401 8.717272 -7.771495 -14.275349 12.153298 -38.415731 -2.940586 7.976467 -14.562618 
-1.583466 0.943172 0.933598 57.986751 -1.908986 123.176489 18.604087 8.740569 -42.723436 -8.909454 -4.740539 16.260206 -9.166472 -0.909122 -2.355791 0.000000 -0.000000 0.000000 -14.124149 -3.100413 -52.959778 5.882581 10.674733 24.915188 9.960788 6.416544 -12.958707 0.000000 -0.000000 0.000000 -0.118288 -3.950137 29.793612 0.680012 1.479210 -9.466794 2.903556 -2.590239 -4.008141 -4.430898 2.965976 -28.307515 1.921255 1.121889 0.385293 -23.452859 0.158829 -4.061845 -41.970338 -19.500118 7.900764 74.053471 -62.516591 -63.201373 28.389767 -6.502818 -28.382272 23.286867 5.118735 0.781028 18.482926 8.894728 -8.963669 -13.903532 11.924515 -39.538403 -7.496171 7.530924 -13.683438 
-1.577213 0.945342 0.936863 58.510167 -1.564901 122.841816 18.487227 8.784399 -42.162047 -8.800077 -5.153664 15.818098 -8.377904 -1.070940 -2.641405 0.000000 -0.000000 0.000000 -13.804104 -3.278685 -51.291655 5.905423 11.572435 23.250962 9.874971 5.597716 -12.526401 0.000000 -0.000000 0.000000 0.374157 -3.802086 29.151920 0.376650 1.674073 -9.317164 2.573841 -2.397541 -3.863411 -4.065246 2.193876 -28.364861 1.858025 0.931418 0.180017 -24.888912 1.218059 -4.185793 -40.605883 -17.238676 7.313193 65.563293 -62.393272 -55.070031 28.500519 -6.879806 -26.826811 23.635005 4.974384 0.698312 15.748021 8.899470 -9.932082 -13.900186 12.618113 -40.792795 -10.571963 7.120525 -14.753150 
-1.571208 0.946500 0.940678 58.689523 -1.332141 122.460358 18.250813 8.814528 -41.431050 -8.682615 -5.165781 15.561866 -8.126608 -1.121289 -2.690346 0.000000 -0.000000 0.000000 -13.562853 -3.498034 -49.669112 5.888717 12.352576 21.746640 10.098352 5.278417 -11.675344 0.000000 -0.000000 0.000000 0.451008 -3.463385 28.562629 0.126642 1.751591 -8.849230 2.222471 -2.071471 -4.005921 -3.684772 2.020908 -28.417360 1.781183 0.486152 -0.262128 -26.219765 2.059638 -4.108783 -37.843784 -14.926735 6.007963 57.820710 -61.880372 -49.749539 27.680931 -8.377664 -23.942448 24.075554 4.801813 1.126594 13.794882 8.004556 -9.994284 -14.775162 14.893850 -42.217758 -11.916604 6.594627 -14.405563 
-1.565725 0.947188 0.944445 58.634818 -1.086229 122.182480 18.344962 8.739678 -40.601500 -8.913943 -5.429829 15.232769 -9.200798 -0.645787 -2.152236 0.000000 -0.000000 0.000000 -13.588882 -3.703426 -48.407699 6.090238 12.646175 20.487919 11.419504 5.225754 -9.964412 0.000000 -0.000000 0.000000 0.194928 -2.998272 27.851428 0.073727 1.800392 -8.275712 2.045230 -1.748793 -4.139732 -3.543660 2.200005 -28.201570 1.675141 -0.005742 -0.924710 -27.015804 2.705204 -3.921482 -34.776560 -12.728133 4.579243 50.104654 -59.924182 -45.522510 25.584952 -8.854723 -22.045624 25.047168 4.351834 0.925240 11.510795 6.808360 -9.471578 -15.840880 18.082514 -42.306693 -10.301021 7.592691 -13.090809 
-1.559527 0.947704 0.950159 58.391846 -0.500907 121.837071 18.172703 9.327417 -39.465558 -8.768650 -6.568337 14.345984 -8.506903 0.043654 -1.465578 0.000000 -0.000000 0.000000 -13.359322 -3.641512 -47.048397 6.620800 13.937155 18.986394 11.728930 4.604003 -7.893078 0.000000 -0.000000 0.000000 0.056929 -2.493848 27.212246 0.185715 1.908275 -7.875276 2.023780 -1.660210 -4.143187 -3.539003 1.772520 -28.640920 1.379753 0.365536 -1.160098 -27.735159 3.496397 -4.153059 -30.779525 -9.894132 2.889576 40.230186 -56.464032 -39.243698 24.309769 -8.956936 -20.106863 25.695058 3.949251 0.244291 9.424821 5.276190 -8.091758 -17.351544 22.633990 -41.944482 -5.567066 9.884677 -13.450201 
-1.555594 0.947556 0.954571 58.182191 0.020753 121.813078 18.491893 9.611570 -38.838705 -8.717478 -6.311234 13.672610 -8.887240 0.093460 -0.441697 0.000000 -0.000000 0.000000 -13.268936 -3.356145 -46.390731 7.026004 14.317019 17.742724 11.937210 3.985950 -6.264043 0.000000 -0.000000 0.000000 -0.047705 -2.170008 26.195151 0.454352 1.724132 -7.265651 1.915348 -1.576162 -4.218936 -3.507106 1.936210 -28.860954 1.273488 0.699877 -1.229731 -27.721185 3.932623 -4.093489 -27.923690 -7.717567 1.739607 34.112456 -52.651085 -36.476082 24.133438 -10.571195 -17.651739 25.933234 3.753480 -0.037157 8.357078 4.654908 -7.330234 -18.703912 25.241312 -42.170497 -0.980672 11.795544 -13.246696 
-1.550822 0.946614 0.959996 57.817576 0.181218 121.429803 17.700737 10.350946 -37.718609 -8.437353 -7.126195 12.760199 -9.231901 0.213301 0.872089 0.000000 -0.000000 0.000000 -12.968327 -3.714204 -45.528879 7.177050 14.608971 16.918445 12.388304 4.165132 -4.230663 0.000000 -0.000000 0.000000 -0.510090 -1.946074 26.015117 0.504998 1.549879 -7.100898 1.954001 -1.412073 -4.360358 -3.497103 2.141475 -28.821153 1.245787 0.677187 -1.564198 -27.367347 3.854055 -3.760785 -25.406440 -5.591884 0.485676 28.550600 -48.531966 -33.896337 23.677232 -11.489698 -15.803674 25.965571 3.591476 -0.379467 7.873079 3.793133 -6.990817 -19.863231 28.034667 -42.184972 4.011951 13.524308 -13.344095 
-1.546752 0.945248 0.964975 57.727547 0.371498 121.060249 17.702888 10.228207 -36.183610 -8.129637 -7.502557 10.872774 -9.425664 1.007964 2.274295 0.000000 -0.000000 0.000000 -12.867517 -3.661019 -44.453013 7.319062 15.095497 15.928777 12.869168 3.539219 -2.450422 0.000000 -0.000000 0.000000 -0.583893 -1.687695 25.520921 0.605475 1.367739 -6.616093 1.879343 -1.392925 -4.431276 -3.508730 2.123209 -28.999703 1.223663 0.485526 -1.520020 -27.182124 3.696581 -3.696768 -22.655686 -4.217615 -0.579847 23.995113 -44.004095 -33.578644 22.287509 -11.943605 -14.629539 26.053601 3.383873 -0.863934 7.305141 2.869841 -6.075780 -21.163312 30.453151 -43.139670 8.247246 14.215659 -13.538607 
-1.542080 0.944519 0.969868 57.788079 0.532618 120.749775 17.312856 10.554620 -34.879941 -7.644523 -8.284284 9.196645 -9.401820 1.021212 3.345140 0.000000 -0.000000 0.000000 -12.829617 -3.831852 -43.468044 7.548150 15.195669 15.071579 13.500323 3.061586 -0.535246 0.000000 -0.000000 0.000000 -0.458213 -1.562238 24.896607 0.849120 1.134769 -6.047281 1.777296 -1.384842 -4.673469 -3.452829 2.171648 -29.663507 0.972329 0.457376 -1.061606 -26.995918 3.707718 -4.360444 -20.378705 -3.167569 -1.704235 19.080857 -39.227987 -32.227627 21.137902 -12.544813 -12.334128 25.890843 3.101574 -1.523019 6.923998 2.501355 -5.458788 -22.240208 31.300843 -43.313341 12.472176 14.604873 -12.021310 
-1.537421 0.942853 0.974817 57.789136 0.570205 120.395211 16.933908 10.543162 -33.266307 -6.978997 -9.165127 7.025326 -9.568541 1.296744 4.724233 0.000000 -0.000000 0.000000 -12.837268 -4.094128 -42.450789 7.732408 15.300029 14.193397 14.013682 2.828211 1.586047 0.000000 -0.000000 0.000000 -0.416711 -1.523490 24.496372 0.805568 0.995517 -6.138079 1.809910 -1.355795 -4.574252 -3.711843 2.069477 -29.261271 1.168647 0.702832 -1.409843 -26.448549 3.453408 -3.832122 -18.924349 -2.078207 -2.857812 16.779954 -35.061763 -32.514103 19.214488 -12.860510 -11.558086 25.569139 3.050275 -1.343614 6.803795 1.671654 -5.563660 -23.079394 32.152807 -43.340448 17.131571 15.134614 -11.643144 
-1.533302 0.941915 0.979470 57.855217 0.614736 120.012103 16.505520 10.595839 -31.817763 -6.420862 -10.039336 5.151806 -9.445666 1.675090 5.936795 0.000000 -0.000000 0.000000 -12.841213 -4.214992 -41.580386 7.941983 15.838543 13.580101 14.006029 2.321150 3.061438 0.000000 -0.000000 0.000000 -0.359534 -1.494257 24.087303 0.885914 0.885615 -5.842046 1.801387 -1.376747 -4.661565 -3.793961 2.132285 -29.380015 1.201337 0.847206 -1.430088 -25.826214 3.580198 -4.152947 -18.081193 -1.370464 -3.453729 14.698673 -31.634010 -31.535837 18.476283 -12.223189 -11.333117 25.342854 2.857511 -2.046774 6.640295 1.359732 -5.095690 -23.709404 32.974445 -42.973812 20.491599 15.306773 -12.478248 
-1.530116 0.941509 0.983448 58.087422 0.616147 119.880052 16.052543 10.722558 -31.079252 -5.846251 -10.207172 3.762121 -9.387791 1.543953 7.282774 0.000000 -0.000000 0.000000 -12.814495 -4.593252 -41.095425 8.034443 15.702117 13.064623 14.687181 2.108750 4.865356 0.000000 -0.000000 0.000000 -0.327338 -1.449763 23.624214 1.039518 0.838528 -5.915552 1.870348 -1.435543 -4.492560 -3.774043 2.316040 -29.734243 0.944980 0.949498 -1.424465 -25.328277 3.815070 -4.284792 -17.218409 -1.266611 -4.118353 13.814587 -29.182056 -32.600471 18.665464 -12.925388 -10.416952 25.078226 2.489168 -2.741292 6.337993 1.591777 -4.935993 -23.942442 32.304877 -43.062102 23.059231 15.142867 -11.816900 
